<svg xmlns="http://www.w3.org/2000/svg" viewBox="0 0 186 107" xmlns:v="https://vecta.io/nano"><path d="M178.8 2.1H7.2c-3.1 0-5.6 2.5-5.6 5.6v91.4c0 3.1 2.5 5.6 5.6 5.6h171.7c3.1 0 5.6-2.5 5.6-5.6V7.8c0-3.1-2.6-5.7-5.7-5.7z" fill="#1d1d1b"/><g fill="#fff"><path d="M178.8 2.1H7.2c-3.1 0-5.6 2.5-5.6 5.6v91.4c0 3.1 2.5 5.6 5.6 5.6h171.7c3.1 0 5.6-2.5 5.6-5.6V7.8c0-3.1-2.6-5.7-5.7-5.7zm4.4 97.1c0 2.4-2 4.4-4.4 4.4H7.2c-2.4 0-4.4-2-4.4-4.4V7.8c0-2.4 2-4.4 4.4-4.4h171.7c2.4 0 4.4 2 4.4 4.4v91.4z"/><path d="M178.8 105.5H7.2c-3.5 0-6.3-2.8-6.3-6.3V7.8c0-3.5 2.8-6.3 6.3-6.3h171.7c3.5 0 6.3 2.8 6.3 6.3v91.4c-.1 3.5-2.9 6.3-6.4 6.3zM7.2 4a3.8 3.8 0 0 0-3.8 3.8v91.4c0 2.1 1.7 3.7 3.7 3.7h171.7c2.1 0 3.7-1.7 3.7-3.7V7.8c0-2.1-1.7-3.7-3.7-3.7H7.2V4zm14.6 25c1.8 0 3.4-.1 4.5-.3 1.3-.2 2.4-.6 3.2-1.1 1.4-.8 2.5-1.8 3.3-3.2a8.66 8.66 0 0 0 1.2-4.5c0-2.8-1-5-3-6.5s-4.8-2.3-8.4-2.3H9.8v18h11.6c.1-.1.3-.1.4-.1zm-7.4-3.3V14.3h8.2c2.2 0 3.8.5 4.9 1.4s1.7 2.3 1.7 4.2c0 2.1-.7 3.5-2 4.5-1.1.7-2.9 1.2-5.4 1.3h-7.4zM42.5 11h4.6v18h-4.6zm19.4 18h13.8c1.9 0 3.2-.3 3.9-.9s1-1.7 1-3.4v-6.2H68.5v3.1h7.6v4H61.6V14.3h14.5v2l4.5-.7v-.4c0-1.5-.4-2.6-1-3.2-.7-.6-2-.9-3.9-.9H61.9c-1.9 0-3.3.3-3.9.9-.7.6-1 1.7-1 3.4v9.4c0 1.6.4 2.8 1 3.4.6.5 1.9.8 3.9.8zm28.5-18H95v18h-4.6zm24.1 18V14.3h9.2V11h-23v3.3h9.2V29zm24.2-18h-4.5L123 29h4.6l2.3-3.9h12.7L145 29h5.2l-11.5-18zm-2.5 10.8h-4.4l4.4-7.2.1-.1 4.3 7.3h-4.4zm40 3.9h-15V11h-4.6v18h19.6zM31.6 51.9l-3.7 13.3-3.7-13.3H9.9l11.2 25.8v17.4h13.5V77.7l11.3-25.8zm28.6 0h-7.7L41.9 95.1h13.3l1-6.4h8l1 6.4h13.2L67.8 51.9h-7.6zm0 28.1h-2.7l2.6-16v.2L62.9 80h-2.7zm38.1-28.9c-5.6 0-10.3 2.1-13.9 6.1-3.6 4.1-5.4 9.4-5.4 15.9 0 3.9.5 7.4 1.6 10.3s2.7 5.4 5 7.4c1.9 1.7 3.9 3 6.2 3.8 2.2.9 4.6 1.3 7 1.3 1.3 0 2.5-.1 3.7-.4 1.3-.3 2.5-.6 3.9-1.2V83.6c-.8.5-1.7.8-2.5 1-.9.2-1.8.4-2.7.4-2.5 0-4.5-1-5.9-3s-2.1-4.9-2.1-8.6c0-3.9.7-6.9 2.1-8.9s3.5-3 6.2-3c.8 0 1.6.1 2.4.3s1.7.5 2.5.9V52.3c-1.3-.4-2.6-.7-3.9-.9-1.4-.2-2.8-.3-4.2-.3zm31.6 16.3h-5.8V51.9h-13.6v43.2h13.6V78.2h5.8v16.9h13.5V51.9h-13.5zm16.6-4.5h8v32.2h13.6V62.9h8.1v-11h-29.7zM10 34h.8v12.6H10zm2.2 0h2.4v12.6h-2.4zm5.3 0h.8v12.6h-.8zm3.7 0h.8v12.6h-.8zm2.1 0h2.4v12.6h-2.4zm3.8 0h.8v12.6h-.8zm2.2 0h.8v12.6h-.8zm3.7 0h.8v12.6H33zm2.1 0h2.4v12.6h-2.4zm3.7 0h.8v12.6h-.8zm2.2 0h.8v12.6H41zm3.7 0h.8v12.6h-.8zm2.1 0h.8v12.6h-.8zm3.8 0h.8v12.6h-.8zm2.1 0h.8v12.6h-.8zm2.1 0h2.4v12.6h-2.4zm3.8 0h.8v12.6h-.8zm3.7 0h2.4v12.6h-2.4zm3.7 0h.8v12.6H66zm2.2 0h.8v12.6h-.8zm2.1 0h2.4v12.6h-2.4zm5.3 0h.8v12.6h-.8zm2.2 0h.8v12.6h-.8zm2.1 0h.8v12.6h-.8zm2.1 0h.8v12.6H82zm2.2 0h2.4v12.6h-2.4zm3.8 0h.8v12.6H88zm3.6 0h.8v12.6h-.8zm2.2 0h.8v12.6h-.8zm2.2 0h.8v12.6H96zm3.6 0h.8v12.6h-.8zm2.2 0h2.4v12.6h-2.4zm3.8 0h.8v12.6h-.8zm2 0h.8v12.6h-.8zm3.8 0h.8v12.6h-.8zm2.2 0h2.4v12.6h-2.4zm3.7 0h.8v12.6h-.8zm2.1 0h.8v12.6h-.8zm3.8 0h.8v12.6h-.8zm2 0h2.4v12.6h-2.4zm3.8 0h.8v12.6h-.8zm2.2 0h.8v12.6h-.8zm3.7 0h.8v12.6h-.8zm2.1 0h2.4v12.6H137zm3.8 0h.8v12.6h-.8zm2.1 0h.8v12.6h-.8zm2.1 0h2.4v12.6H145zm5.4 0h.8v12.6h-.8zm2.1 0h.8v12.6h-.8zm2.1 0h.8v12.6h-.8zm2.2 0h2.4v12.6h-2.4zm5.3 0h.8v12.6h-.8zm2.1 0h.8v12.6h-.8zm2.2 0h2.4v12.6h-2.4zm5.3 0h.8v12.6h-.8zm3.7 0h.8v12.6h-.8z"/></g></svg>